<svg xmlns="http://www.w3.org/2000/svg" enable-background="new 0 0 512 512" viewBox="0 0 512 512"><path fill="#f0f0f0" d="M433.894.01h-10.24c6.645 6.645 10.785 15.85 10.785 25.981v459.983c0 10.186-4.14 19.391-10.785 26.036h10.24c14.38 0 26.036-11.656 26.036-26.036V25.991C459.93 11.666 448.274.01 433.894.01zM397.51.01H151.913v512H397.51c14.38 0 26.036-11.656 26.036-26.036V25.991C423.546 11.666 411.889.01 397.51.01zM374.797 150.777c0 6.016-4.877 10.894-10.894 10.894H211.556c-6.016 0-10.894-4.877-10.894-10.894v-74.24c0-6.017 4.877-10.894 10.894-10.894h152.347c6.016 0 10.894 4.877 10.894 10.894V150.777zM52.07 31.222v449.531c0 17.249 13.983 31.232 31.232 31.232h57.702V-.01H83.302C66.053-.01 52.07 13.973 52.07 31.222z"/></svg>