<svg xmlns="http://www.w3.org/2000/svg" viewBox="0 0 32 32"><rect width="30" height="30" x="1" y="1" fill="#eef5fd" rx="5" ry="5"/><path fill="#d7e2f2" d="M26,1H16V31H26a5,5,0,0,0,5-5V6A5,5,0,0,0,26,1Z"/><path fill="#96d7ff" d="M6 20a1 1 0 0 1-1-1V13a1 1 0 1 1 2 0v6A1 1 0 0 1 6 20zM11 25a1 1 0 0 1-1-1V8a1 1 0 1 1 2 0V24A1 1 0 0 1 11 25zM16 21a1 1 0 0 1-1-1V12a1 1 0 0 1 2 0v8A1 1 0 0 1 16 21z"/><path fill="#86c3ef" d="M16 11V21a1 1 0 0 0 1-1V12A1 1 0 0 0 16 11zM21 25a1 1 0 0 1-1-1V8a1 1 0 0 1 2 0V24A1 1 0 0 1 21 25zM26 21a1 1 0 0 1-1-1V12a1 1 0 0 1 2 0v8A1 1 0 0 1 26 21z"/></svg>