<svg xmlns="http://www.w3.org/2000/svg" width="16" height="16"><path style="line-height:normal;text-indent:0;text-align:start;text-decoration-line:none;text-decoration-style:solid;text-decoration-color:#000;text-transform:none;block-progression:tb;white-space:normal;isolation:auto;mix-blend-mode:normal;solid-color:#000;solid-opacity:1" d="M.996 3.008V14.01h15V3.008h-15zm1 1h7v.994h-7v-.994zm8 0h1v.994h-1v-.994zm2 0h1v.994h-1v-.994zm2 0h1v.994h-1v-.994zm-12 1.994h13v7.008h-13V6.002zm1 .992v5.008h6V6.994h-6zm7 .008v1h4v-1h-4zm-6 .992h4v3.008h-4V7.994zm6 1.008v1h4v-1h-4zm0 2v1h4v-1h-4z" color="#000" enable-background="accumulate" font-family="sans-serif" font-weight="400" overflow="visible"/></svg>