<svg xmlns="http://www.w3.org/2000/svg" viewBox="0 0 32 32"><rect width="30" height="30" x="1" y="1" fill="#eef5fd" rx="5" ry="5"/><path fill="#d7e2f2" d="M26,1H16V31H26a5,5,0,0,0,5-5V6A5,5,0,0,0,26,1Z"/><path fill="#c9c1f5" d="M22.57,8.18a1,1,0,0,0-.92-.12L13.82,11H11a2,2,0,0,0-2,2v6a2,2,0,0,0,2,2h2.82l7.83,2.94A1,1,0,0,0,22,24a1,1,0,0,0,1-1V9A1,1,0,0,0,22.57,8.18Z"/><path fill="#ffc661" d="M22.57,8.18a1,1,0,0,0-.92-.12L13.82,11V21l7.83,2.94A1,1,0,0,0,22,24a1,1,0,0,0,1-1V9A1,1,0,0,0,22.57,8.18Z"/><path fill="#e49f4e" d="M22.57,8.18a1,1,0,0,0-.92-.12L16,10.18V21.82l5.65,2.12A1,1,0,0,0,22,24a1,1,0,0,0,1-1V9A1,1,0,0,0,22.57,8.18Z"/></svg>