<svg xmlns="http://www.w3.org/2000/svg" width="36" height="36"><g transform="translate(0 -1016.362)"><path style="line-height:normal;text-indent:0;text-align:start;text-decoration-line:none;text-decoration-style:solid;text-decoration-color:#000;text-transform:none;block-progression:tb;isolation:auto;mix-blend-mode:normal" fill="#406b95" fill-rule="evenodd" d="m24.066 1024.889-1.5 2.597.868.5 1.5-2.597-.868-.5z" color="#000" font-family="sans-serif" font-weight="400" overflow="visible"/><path style="line-height:normal;text-indent:0;text-align:start;text-decoration-line:none;text-decoration-style:solid;text-decoration-color:#000;text-transform:none;block-progression:tb;isolation:auto;mix-blend-mode:normal" fill="#406b95" fill-rule="evenodd" d="m23.635 1024.639-.5.865 1.73 1 .5-.865-1.73-1z" color="#000" font-family="sans-serif" font-weight="400" overflow="visible"/><path style="line-height:normal;text-indent:0;text-align:start;text-decoration-line:none;text-decoration-style:solid;text-decoration-color:#000;text-transform:none;block-progression:tb;isolation:auto;mix-blend-mode:normal" fill="#d2dce9" d="M17.5 1020.361c-1.65 0-3 1.35-3 3 0 1.651 1.35 3 3 3s3-1.349 3-3c0-1.65-1.35-3-3-3zm0 1c1.11 0 2 .89 2 2 0 1.11-.89 2-2 2-1.11 0-2-.89-2-2 0-1.11.89-2 2-2z" color="#000" font-family="sans-serif" font-weight="400" overflow="visible"/><path style="line-height:normal;text-indent:0;text-align:start;text-decoration-line:none;text-decoration-style:solid;text-decoration-color:#000;text-transform:none;block-progression:tb;isolation:auto;mix-blend-mode:normal" fill="#406b95" fill-rule="evenodd" d="M17 1023.387v3h1v-3h-1z" color="#000" font-family="sans-serif" font-weight="400" overflow="visible"/><path fill="#ee7581" d="M29 1037.262a11.5 11.5 0 0 1-11.5 11.5 11.5 11.5 0 0 1-11.5-11.5 11.5 11.5 0 0 1 11.5-11.5 11.5 11.5 0 0 1 11.5 11.5z"/><circle cx="17.5" cy="1037.262" r="9.5" fill="#f0f4f7" stroke="#406b95" stroke-dashoffset="3.4" stroke-linecap="round" stroke-linejoin="round"/><circle cx="17.5" cy="1037.262" r="1" fill="#2dbca4" stroke="#406b95" stroke-dashoffset="3.4" stroke-linecap="round" stroke-linejoin="round"/><path style="line-height:normal;text-indent:0;text-align:start;text-decoration-line:none;text-decoration-style:solid;text-decoration-color:#000;text-transform:none;block-progression:tb;isolation:auto;mix-blend-mode:normal" fill="#406b95" fill-rule="evenodd" d="M17 1031.262v5h1v-5h-1z" color="#000" font-family="sans-serif" font-weight="400" overflow="visible"/><path fill="#105286" d="M10.5 1037.262a.5.5 0 0 1-.5.5.5.5 0 0 1-.5-.5.5.5 0 0 1 .5-.5.5.5 0 0 1 .5.5zm15 0a.5.5 0 0 1-.5.5.5.5 0 0 1-.5-.5.5.5 0 0 1 .5-.5.5.5 0 0 1 .5.5zM17.5 1030.262a.5.5 0 0 1-.5-.5.5.5 0 0 1 .5-.5.5.5 0 0 1 .5.5.5.5 0 0 1-.5.5zm0 15a.5.5 0 0 1-.5-.5.5.5 0 0 1 .5-.5.5.5 0 0 1 .5.5.5.5 0 0 1-.5.5zM11.438 1033.762a.5.5 0 0 1-.683.183.5.5 0 0 1-.183-.683.5.5 0 0 1 .683-.183.5.5 0 0 1 .183.683zm12.99 7.5a.5.5 0 0 1-.683.183.5.5 0 0 1-.183-.683.5.5 0 0 1 .683-.183.5.5 0 0 1 .183.683zM21 1031.2a.5.5 0 0 1-.183-.683.5.5 0 0 1 .683-.183.5.5 0 0 1 .183.683.5.5 0 0 1-.683.183zm-7.5 12.99a.5.5 0 0 1-.183-.682.5.5 0 0 1 .683-.183.5.5 0 0 1 .183.683.5.5 0 0 1-.683.183zM14 1031.2a.5.5 0 0 1-.683-.183.5.5 0 0 1 .183-.683.5.5 0 0 1 .683.183.5.5 0 0 1-.183.683zm7.5 12.99a.5.5 0 0 1-.683-.182.5.5 0 0 1 .183-.683.5.5 0 0 1 .683.183.5.5 0 0 1-.183.683zM23.562 1033.762a.5.5 0 0 1 .183-.683.5.5 0 0 1 .683.183.5.5 0 0 1-.183.683.5.5 0 0 1-.683-.183zm-12.99 7.5a.5.5 0 0 1 .183-.683.5.5 0 0 1 .683.183.5.5 0 0 1-.183.683.5.5 0 0 1-.683-.183z"/><path style="line-height:normal;text-indent:0;text-align:start;text-decoration-line:none;text-decoration-style:solid;text-decoration-color:#000;text-transform:none;block-progression:tb;isolation:auto;mix-blend-mode:normal" fill="#406b95" fill-rule="evenodd" d="M16.5 1023.387v1h2v-1h-2z" color="#000" font-family="sans-serif" font-weight="400" overflow="visible"/></g></svg>